<?xml version="1.0" standalone="no"?>
<!DOCTYPE svg PUBLIC "-//W3C//DTD SVG 20010904//EN"
 "http://www.w3.org/TR/2001/REC-SVG-20010904/DTD/svg10.dtd">
<svg version="1.0" xmlns="http://www.w3.org/2000/svg"
 width="301.000000pt" height="170.000000pt" viewBox="0 0 301.000000 170.000000"
 preserveAspectRatio="xMidYMid meet">

<g transform="translate(0.000000,170.000000) scale(0.100000,-0.100000)"
fill="#000000" stroke="none">
<path d="M495 1648 c-90 -17 -209 -82 -284 -156 -148 -148 -204 -351 -151
-556 24 -97 67 -173 139 -250 70 -74 139 -119 233 -150 l73 -25 -157 -1 c-99
0 -158 -4 -158 -10 0 -7 468 -10 1385 -10 917 0 1385 3 1385 10 0 7 -378 10
-1112 11 l-1113 0 70 24 c137 48 260 155 326 287 41 82 59 159 59 256 0 163
-54 295 -165 408 -141 142 -330 200 -530 162z m288 -28 c246 -76 415 -327 394
-585 -4 -38 -16 -97 -27 -129 -19 -56 -66 -146 -75 -146 -3 0 -5 42 -5 94 l0
94 31 6 c26 5 30 10 27 33 l-3 28 -129 3 c-118 2 -130 4 -147 25 -35 42 -26
47 76 47 l96 0 -3 118 -3 117 -192 3 -193 2 0 -120 0 -120 90 0 c97 0 105 -6
71 -47 -18 -21 -27 -23 -137 -23 -113 0 -116 1 -101 18 10 10 17 23 17 29 0 5
-31 40 -70 77 -60 58 -72 66 -89 56 -16 -8 -22 -7 -30 7 -7 14 -25 18 -80 20
-98 3 -104 -5 -99 -118 3 -77 1 -89 -14 -93 -36 -9 -14 -66 24 -66 16 0 18
-12 18 -137 l0 -137 -35 34 c-41 40 -97 143 -121 225 -25 83 -25 232 0 305 52
155 158 282 287 343 121 57 119 57 119 -2 0 -38 -4 -51 -15 -51 -16 0 -35 -30
-35 -54 0 -13 12 -16 55 -16 52 0 55 1 55 25 0 15 -9 31 -25 41 -20 13 -25 24
-25 60 0 37 3 44 23 48 12 3 31 7 42 10 37 9 165 -5 228 -24z m-265 -112 c21
-21 13 -28 -28 -28 -28 0 -40 4 -40 14 0 25 48 34 68 14z m482 -298 l0 -110
-180 0 -180 0 0 110 0 110 180 0 180 0 0 -110z m-720 -90 l0 -90 -30 0 -30 0
0 90 0 90 30 0 30 0 0 -90z m90 0 l0 -90 -30 0 -30 0 0 90 0 90 30 0 30 0 0
-90z m125 10 c50 -50 58 -63 49 -78 -21 -32 -45 -25 -100 29 -55 54 -64 75
-42 97 20 20 31 14 93 -48z m-61 -108 c-25 -2 -47 -2 -48 0 -2 2 -1 23 2 46
l4 44 45 -44 44 -43 -47 -3z m399 11 c-7 -2 -19 -2 -25 0 -7 3 -2 5 12 5 14 0
19 -2 13 -5z m282 -43 c0 -13 -58 -15 -455 -18 -250 -1 -461 0 -467 3 -7 2
-10 11 -7 20 6 13 59 15 468 13 402 -3 461 -5 461 -18z m-665 -85 l0 -45 -100
0 -100 0 0 45 0 45 100 0 100 0 0 -45z m186 23 c-1 -14 5 -23 14 -23 8 0 16
10 18 23 3 21 8 22 83 22 l79 0 0 -45 0 -45 -180 0 -180 0 0 45 0 45 83 0 c80
0 84 -1 83 -22z m414 -23 l0 -45 -100 0 -100 0 0 38 c0 21 3 42 7 45 3 4 48 7
100 7 l93 0 0 -45z m-410 -225 l0 -160 -27 0 c-96 0 -226 42 -315 103 l-48 32
0 93 0 92 195 0 195 0 0 -160z m420 106 c0 -51 -2 -55 -53 -103 -91 -86 -184
-134 -292 -151 l-55 -9 0 159 0 158 200 0 200 0 0 -54z"/>
<path d="M595 690 c-8 -14 3 -30 21 -30 8 0 14 9 14 20 0 21 -24 28 -35 10z"/>
<path d="M672 683 c5 -26 38 -29 38 -4 0 15 -6 21 -21 21 -14 0 -19 -5 -17
-17z"/>
<path d="M1500 1031 c0 -20 6 -30 20 -34 20 -5 20 -12 18 -184 -3 -176 -3
-178 -25 -181 -18 -3 -23 -10 -23 -33 l0 -29 100 0 100 0 0 29 c0 26 -4 30
-32 33 l-33 3 -3 73 -3 72 91 0 90 0 0 35 0 35 -90 0 -91 0 3 68 3 67 63 3
c66 3 92 -7 92 -37 0 -13 7 -16 35 -13 l35 4 0 59 0 59 -175 0 -175 0 0 -29z"/>
<path d="M2040 1031 c0 -23 5 -30 23 -33 22 -3 22 -6 25 -163 3 -182 0 -205
-28 -205 -16 0 -20 -7 -20 -30 l0 -30 100 0 100 0 0 30 c0 28 -3 30 -35 30
l-35 0 0 75 0 75 90 0 90 0 0 35 0 35 -90 0 -90 0 0 70 0 70 70 0 c73 0 72 0
85 -46 2 -6 17 -9 34 -6 31 4 31 5 31 63 l0 59 -175 0 -175 0 0 -29z"/>
<path d="M2454 635 c-15 -23 -15 -27 0 -50 21 -32 59 -33 80 -3 20 28 20 43 0
62 -24 24 -61 20 -80 -9z"/>
<path d="M361 308 c1 -46 4 -71 6 -56 3 18 12 28 26 31 l22 4 -22 2 c-35 2
-31 39 5 44 l27 4 -27 2 c-21 1 -28 6 -28 20 0 14 8 21 28 24 25 4 25 4 -5 6
l-33 1 1 -82z"/>
<path d="M502 349 c-1 -30 3 -51 12 -59 21 -16 60 -9 62 13 2 13 1 14 -3 2 -3
-11 -14 -15 -31 -13 -24 3 -28 8 -33 53 l-6 50 -1 -46z"/>
<path d="M672 333 l2 -58 3 52 c3 38 8 53 21 56 12 3 11 5 -5 6 -22 1 -23 -3
-21 -56z"/>
<path d="M832 333 l2 -58 3 48 c4 44 6 47 21 35 13 -9 12 -7 -2 10 -11 12 -21
22 -23 22 -1 0 -2 -26 -1 -57z"/>
<path d="M900 354 c0 -33 -2 -35 -17 -23 -17 13 -17 12 -2 -6 9 -11 19 -27 22
-35 3 -8 6 11 6 43 1 31 -1 57 -4 57 -3 0 -5 -16 -5 -36z"/>
<path d="M1110 386 c0 -9 37 -12 55 -5 15 6 11 8 -17 8 -21 1 -38 -1 -38 -3z"/>
<path d="M1264 346 c2 -92 70 -92 72 0 l2 49 -7 -50 c-5 -45 -9 -50 -31 -50
-22 0 -26 5 -31 50 l-7 50 2 -49z"/>
<path d="M1432 333 l2 -58 3 52 c3 38 8 53 21 56 12 3 11 5 -5 6 -22 1 -23 -3
-21 -56z"/>
<path d="M1590 382 c0 -5 14 -7 30 -4 17 2 30 6 30 8 0 2 -13 4 -30 4 -16 0
-30 -4 -30 -8z"/>
<path d="M1868 383 c7 -3 16 -2 19 1 4 3 -2 6 -13 5 -11 0 -14 -3 -6 -6z"/>
<path d="M2001 333 c1 -32 4 -46 6 -31 3 18 12 28 26 31 l22 4 -22 2 c-35 2
-31 39 5 44 25 4 25 4 -5 6 l-33 1 1 -57z"/>
<path d="M2252 383 c13 -3 18 -18 21 -56 l3 -52 2 52 c2 40 6 53 20 56 9 3 -1
5 -23 5 -22 0 -32 -2 -23 -5z"/>
<path d="M2393 335 c0 -33 2 -48 4 -32 4 22 9 27 33 27 24 0 29 -5 33 -27 2
-16 4 -1 4 32 0 33 -2 48 -4 33 -4 -23 -9 -28 -33 -28 -24 0 -29 5 -33 28 -2
15 -4 0 -4 -33z"/>
<path d="M2560 382 c0 -5 14 -7 30 -4 17 2 30 6 30 8 0 2 -13 4 -30 4 -16 0
-30 -4 -30 -8z"/>
<path d="M1013 330 c0 -30 2 -43 4 -27 2 15 2 39 0 55 -2 15 -4 2 -4 -28z"/>
<path d="M1487 364 c4 -10 -1 -22 -10 -29 -15 -11 -16 -14 -2 -25 13 -11 14
-10 10 3 -4 8 -2 18 4 22 14 8 14 45 1 45 -5 0 -7 -7 -3 -16z"/>
<path d="M1834 354 c-10 -41 11 -76 43 -72 35 4 52 45 35 80 -11 22 -11 22 -6
-4 9 -41 -4 -68 -31 -68 -27 0 -42 33 -30 69 3 12 4 21 1 21 -3 0 -9 -12 -12
-26z"/>
<path d="M722 337 c-7 -8 -6 -19 3 -37 8 -14 14 -20 14 -15 1 6 -3 17 -9 25
-5 9 -5 19 2 27 6 7 8 13 5 13 -2 0 -9 -6 -15 -13z"/>
<path d="M1603 333 c9 -2 23 -2 30 0 6 3 -1 5 -18 5 -16 0 -22 -2 -12 -5z"/>
<path d="M2573 333 c9 -2 23 -2 30 0 6 3 -1 5 -18 5 -16 0 -22 -2 -12 -5z"/>
<path d="M1603 283 c9 -2 25 -2 35 0 9 3 1 5 -18 5 -19 0 -27 -2 -17 -5z"/>
<path d="M2573 283 c9 -2 25 -2 35 0 9 3 1 5 -18 5 -19 0 -27 -2 -17 -5z"/>
<path d="M361 123 c1 -32 4 -46 6 -31 3 18 12 28 26 31 l22 4 -22 2 c-35 2
-31 39 5 44 25 4 25 4 -5 6 l-33 1 1 -57z"/>
<path d="M502 139 c-2 -52 13 -72 50 -67 20 3 23 9 24 51 l1 47 -4 -46 c-4
-42 -6 -45 -31 -42 -24 3 -28 8 -33 53 l-6 50 -1 -46z"/>
<path d="M660 176 c0 -9 37 -12 55 -5 15 6 11 8 -17 8 -21 1 -38 -1 -38 -3z"/>
<path d="M890 135 c-5 -45 -7 -50 -32 -53 -17 -2 -28 2 -31 13 -4 12 -5 11 -3
-2 2 -23 48 -29 65 -9 7 8 11 33 9 58 l-4 43 -4 -50z"/>
<path d="M990 171 c0 -5 9 -7 20 -4 11 3 20 7 20 9 0 2 -9 4 -20 4 -11 0 -20
-4 -20 -9z"/>
<path d="M1150 172 c0 -5 14 -7 30 -4 17 2 30 6 30 8 0 2 -13 4 -30 4 -16 0
-30 -4 -30 -8z"/>
<path d="M1046 155 c4 -9 0 -21 -9 -28 -15 -11 -14 -14 4 -37 l21 -25 -15 27
c-14 23 -14 27 -2 32 17 6 20 32 5 41 -6 3 -7 -1 -4 -10z"/>
<path d="M1163 123 c9 -2 23 -2 30 0 6 3 -1 5 -18 5 -16 0 -22 -2 -12 -5z"/>
<path d="M1163 73 c9 -2 25 -2 35 0 9 3 1 5 -18 5 -19 0 -27 -2 -17 -5z"/>
</g>
</svg>
